<?xml version="1.0" encoding="UTF-8"?>
<svg id="Ebene_1" xmlns="http://www.w3.org/2000/svg" version="1.1" viewBox="0 0 3024 1964">
  <!-- Generator: Adobe Illustrator 29.0.0, SVG Export Plug-In . SVG Version: 2.1.0 Build 186)  -->
  <defs>
    <style>
      .st0 {
        fill: #6a9ab0;
      }

      .st1 {
        fill: #387478;
      }

      .st2 {
        fill: #243642;
      }

      .st3 {
        fill: #629584;
      }

      .st4 {
        fill: #e2f1e7;
      }
    </style>
  </defs>
  <polygon class="st2" points="2468.5 851.2 2352.8 851.2 2340.2 840.4 2327.6 840.4 2327.6 861 2271.2 861 2271.2 902.6 2166.7 902.6 2166.7 881.4 2129.3 881.4 2102.5 840.4 2008.7 840.4 2008.7 813.3 1988.3 759.9 1969.9 813.3 1969.9 839.6 1961.1 828.9 1840.6 821.1 1760.9 825 1728.8 817.2 1688 788.1 1549.1 781.3 1544.1 788.1 1436.2 788.1 1420.7 798.8 1398.3 772.5 1311.8 766.7 1303.1 756 1258.4 806.5 1247.5 817.1 1220.5 791.2 1220.5 764.7 1195.2 707.4 1177.7 707.4 1167 692.8 1161.2 703.5 1048.4 700.6 1040.6 708.4 1019.3 708.4 1019.3 651 995.2 514 967.8 651.2 967.8 709.3 948.3 709.3 948.3 670.5 918.2 514 886.1 669.1 886.1 793.9 841.4 761.8 792.8 761.8 811.3 890.1 701.4 890.1 658.7 1063.1 2425.7 1063.1 2468.5 961.1 2468.5 851.2"/>
  <path class="st3" d="M2533.1,849.3c-9.1,0-17.6,3.2-24.9,8.8-4.4-39-22.1-68.1-43.2-68.1s-44.2,39-44.2,87,19.8,87,44.2,87,18.9-6.3,26.2-16.9c8.6,18.3,24.1,30.5,41.8,30.5,27.1,0,49.1-28.7,49.1-64.2s-22-64.2-49.1-64.2h0Z"/>
  <ellipse class="st3" cx="748.1" cy="815.3" rx="76.8" ry="111.8"/>
  <path class="st3" d="M1003.4,898s1.7-13.1,1.7-20c0-45.6-26.1-82.6-58.3-82.6s-58.3,37-58.3,82.6,1.9,21,1.9,21l113-1h0Z"/>
  <path class="st0" d="M2927.3,1006.8s-2748.3-1.5-2817.8,57.3c-69.5,58.8,7.5,899.9,7.5,899.9h2907l-96.7-957.2h0Z"/>
  <path class="st4" d="M1214,1017.8c-.3,0-467.9-16.8-483.5-16.8l-179.3-63.9H0v1027h179s-77-636,155.5-817.8c106.5-83.2,429.3-117.3,879.2-128.8-.2-3.8.5,4.1.4.3h0Z"/>
  <path class="st4" d="M3024,1964v-990.3s-635.9-5.5-649.8-4.9c-21.4,1-70,29.2-78.9,72-5,30.6,3.6,63.2,35.6,95.7,61.2,62.2,290.6,105,398.5,224.5,135.9,150.6,78.5,602.9,78.5,602.9h216.1,0Z"/>
  <path class="st1" d="M2611.4,931.9l-2140.3-71,99.1,156.5,199.3-1v-56.4s71.9-42.8,202.2-42.8,225.5,77.8,225.5,77.8l-2.9,65.1s7.8,5.8,24.3,5.8,62.2-4.9,62.2-4.9v-65.1s84.6-56.4,224.5-56.4,246.9,67.1,246.9,67.1v65.1s6.8,7.8,31.1,7.8,37.9-7.8,37.9-7.8v-66.1s105.9-47.6,221.6-47.6,261.5,54.4,261.5,54.4v53.5s5.8,8.8,21.4,8.8,46.7-8.8,46.7-8.8v-44.7l217.7,25.3,21.4-114.7h0Z"/>
  <path class="st2" d="M171.8,1264.6c21.9-38.1,50.9-72.3,85.4-99.6,25.4-20.1,53.2-36.4,82.5-50.1,31.9-13.9,66.2-25,102.4-34.3,125.2-30.9,254.2-41.2,382.4-52.1-128.3,9.8-257.6,19.1-383.2,48.9-36.4,9-70.8,19.8-103,33.5-29.2,11.6-57.4,25.8-83.4,43.7-62.6,42.4-105.9,102.2-136.1,170.8-42.2,97.2-60.7,202.5-75,306.7-14.4,110.1-22.8,221.1-29.4,332h60c0-86.4,1.4-172.7,5.6-259,8.4-143,20.3-314.4,91.8-440.4h0Z"/>
  <path class="st2" d="M2941.3,1731.2c-9.3-83.6-21.1-169.1-54.6-247-4.8-10.8-10.6-21.9-16.7-31.9-9-14.5-18.6-28.8-28.8-42.6-31.8-44.7-70.8-84.3-117.4-113.2-8.4-5.4-17.6-10.6-26.3-15.4-52.1-28.2-108.1-48-163.8-67.8,0,0-16.3-5.7-32.6-11.4-37.7-13.7-75.2-27.7-111.1-45.5-24.2-12.4-48.3-26.4-67.1-46.4-9.2-10-16.8-22-19.3-35.6,2.4,13.6,9.9,25.7,19.1,35.7,18.7,20.1,42.8,34.3,67,46.9,39.2,19.8,80.5,35,121.7,50.2,11.8,4.6,21.5,8.4,21.5,8.4,58.5,23.3,117.6,46.5,171.2,79.9,47.5,29,86.7,68.9,118.2,114.3,11.1,16.9,21.2,34.4,30.7,52.3,7.1,13.7,12.9,28.4,17.5,43.1,12.2,38.8,18.7,79.1,23.3,119.5,7.9,72.5,8.9,145.7,7.3,218.7-1,40.2-2.9,80.4-5.6,120.5h57.6c-.4-77.7-3.8-155.4-11.6-232.8h-.2,0Z"/>
  <g>
    <path class="st3" d="M2660.9,955.1c.2,0,.4.2.6.4-.1-.4-.2-.8-.4-1.1,0,.3-.1.5-.2.8h0Z"/>
    <path class="st3" d="M2992.4,849.3c-20.2,0-39.1,7.8-55.1,21.4-12.2-35.2-43.2-60.2-79.6-60.2s-78.1,34.6-84.1,79.7h-.9c-6.1,0-12,.7-17.6,1.9.7-9.1,1.1-18.5,1.1-28.1,0-77.3-24.1-140-53.9-140s-44.7,41.4-51.5,98.3c-5.8-9.3-12.6-14.7-19.9-14.7-20.4,0-36.9,41.8-36.9,93.3s1.8,32.8,4.9,46.5c-9.1,2.7-17.3,7-24.2,12.5-7.8-23.6-22.8-39.5-39.9-39.5s-37.8,22.6-43.6,53.8c-6.6-9.8-15.8-15.9-25.9-15.9-20.2,0-36.6,24.4-36.6,54.4s16.4,54.4,36.6,54.4,25.3-10.8,31.6-27c8.2,20.4,22.1,33.8,37.9,33.8s27.4-11.4,35.8-29.1c12.6,11.9,30.7,19.3,50.7,19.3s45.5-10.9,57.9-27.3c4.2,4,9,6.2,14.1,6.2,8.7,0,16.6-6.6,22.3-17.3-.9,5.4-1.3,11.2-1.3,17.3,0,27.2,9.4,49.3,21,49.3s20.1-20,20.9-45.4c4.5,2.4,9.3,3.8,14.5,4.1,2.2,0,4.4,0,6.5-.3-8.9,15-14.2,34.4-14.2,55.6,0,47.5,26.9,86,60,86s25.4-6.1,35.3-16.4c-.6,5.2-.9,10.6-.9,16.2,0,33.7,11.6,61,26,61s25.4-25.9,26-58.4c6.3,13.8,15.4,22.4,25.5,22.4s20.2-9.6,26.6-24.8c2.9,3.9,6.1,7.4,9.7,10.5-4.9,12.4-7.8,27.5-7.8,43.8,0,42.2,19.2,76.5,43,76.5s12.5-2.5,18-7v-460c-10-4.3-20.6-6.6-31.6-6.6h0l-.4-.2h0ZM2660.9,955.1c0-.3.1-.5.2-.8.1.4.2.8.4,1.1-.2,0-.4-.2-.6-.4h0Z"/>
  </g>
  <path class="st3" d="M681,878.5h-2.5c3.5-9.1,5.4-19.2,5.4-29.7,0-41.6-30-75.3-67.1-75.3s-61.5,27.9-66.3,64.2c-2.9-1-5.9-1.5-9-1.5-13.9,0-26.5,10.3-35.3,26.8-8.4-16.4-20.8-26.8-34.7-26.8s-12.6,2.3-18.2,6.3c-5.4-39.5-23.5-68.5-45-68.5s-23.5,9.6-31.9,25.2c-11-10.8-25.3-17.4-41-17.4-25.5,0-47.5,17.3-57,42-5.9-1.9-12.1-3.1-18.5-3.5-8.9-59.7-39.1-103.7-75.1-103.7s-37.4,13-51.1,34.4c-17.8-43.1-51.8-72.3-90.8-72.3S13.1,683.2,0,691.2v420.2c39.3-3.6,72.6-36.8,87.9-83.3,11.8,6.8,25.3,10.7,39.6,10.7,30.9,0,57.9-18,72.8-45,2.3-.8,4.6-1.9,6.8-3.1,13.6,10.1,30,16,47.7,16s40-8.3,54.8-22c7.8,7.2,17,11.3,26.8,11.3s22.1-5.7,30.7-15.2c12,5.3,26.3,8.4,41.7,8.4s29.5-3.1,41.5-8.3c6.3,5.6,13.6,8.8,21.2,8.8,11.5,0,22.1-7.2,30.1-19.1,8.8,22.1,23.4,36.6,39.9,36.6s.9,0,1.3,0c12.3,17.5,31.3,28.7,52.7,28.7s34.3-8,46.4-21c11.3,7.1,24.8,11.2,39.2,11.2,40.8,0,73.9-33.1,73.9-73.9s-33.1-73.9-73.9-73.9h0v.2h-.1Z"/>
  <polygon class="st2" points="181 1518.8 84 1478.9 77.6 1494.4 177.7 1535.6 177.7 1535.5 177.7 1535.6 406.3 1535.6 406.3 1518.8 181 1518.8"/>
  <path class="st2" d="M2879.1,1509.5l-81,33.3h-225.3v16.8h228.5l84.7-34.9c-2.2-5.2-4.5-10.3-7-15.3h.1Z"/>
</svg>